<svg width="46" height="46" viewBox="0 0 46 46" fill="none" xmlns="http://www.w3.org/2000/svg">
<path d="M30.5072 28.5813L30.2932 28.7953L27.169 25.6711C29.0093 23.4884 30.122 20.6638 30.122 17.5824C30.122 14.287 28.7953 11.0772 26.4414 8.72337C24.0876 6.32672 20.835 5 17.5396 5C10.6064 5 5 10.6492 5 17.5824C5 20.9634 6.32672 24.1304 8.72337 26.527C11.0772 28.8809 14.2014 30.1648 17.4968 30.1648C17.5396 30.1648 17.5396 30.1648 17.5824 30.1648C20.6638 30.1648 23.4884 29.0521 25.6711 27.2118L28.7953 30.336L28.4529 30.6356C28.0249 31.0636 28.0249 31.7483 28.4529 32.1335L37.3548 41.0353C38.3391 42.0197 39.9654 42.0197 40.9497 41.0353C41.9341 40.051 41.9341 38.4247 40.9497 37.4404L32.0051 28.5813C31.5771 28.1533 30.9352 28.1533 30.5072 28.5813ZM17.5396 27.9822H17.4968C14.7578 27.9822 12.1471 26.9122 10.2213 24.9863C8.2526 23.0177 7.13987 20.3642 7.13987 17.5824C7.13987 11.8048 11.8048 7.13987 17.5396 7.13987C20.2786 7.13987 22.9321 8.2526 24.9007 10.2213C26.8694 12.1899 27.9822 14.8434 27.9822 17.5824C27.9822 23.3172 23.3172 27.9822 17.5396 27.9822Z" fill="#2D3142"/>
<path d="M9.10858 17.5824C9.10858 18.4812 9.23697 19.3371 9.49376 20.193C9.70774 20.7922 10.3925 21.0918 10.9917 20.835C11.4624 20.621 11.7192 20.0647 11.548 19.5511C11.334 18.9091 11.2484 18.2672 11.2484 17.5824C11.2484 15.9989 11.8476 14.501 12.9175 13.3455C13.2599 12.9603 13.2599 12.3611 12.9603 11.976C12.5324 11.4624 11.8048 11.4624 11.334 11.9332C9.92173 13.4311 9.10858 15.4425 9.10858 17.5824Z" fill="#2D3142"/>
</svg>
